<svg viewBox="0 0 110 110" xmlns="http://www.w3.org/2000/svg" fill-rule="evenodd" clip-rule="evenodd" stroke-linejoin="round" stroke-miterlimit="1.414"><path d="M110 55c0 30.38-24.625 55-55 55-30.376 0-55-24.62-55-55S24.624 0 55 0c30.375 0 55 24.62 55 55z" fill="#6695C7" fill-rule="nonzero"/><path d="M31 26.84c0-2.12 1.72-3.84 3.84-3.84H63l16 13.44v46.72c0 2.12-1.72 3.84-3.84 3.84H34.84C32.72 87 31 85.28 31 83.16V26.84z" fill="#FEFEFE" fill-rule="nonzero"/><path d="M63 23v9.6c0 2.12 1.72 3.84 3.84 3.84H79" fill="#CCDBEB" fill-rule="nonzero"/><path d="M64.706 68.62c-.52 0-1.04-.21-1.422-.62-.73-.79-.686-2.01.1-2.74l4.8-4.47-4.78-4.32c-.795-.72-.857-1.95-.14-2.74.72-.8 1.947-.86 2.743-.14l6.353 5.74c.403.36.635.88.64 1.42.004.55-.22 1.07-.62 1.44L66.03 68.1c-.374.35-.85.52-1.322.52zM45.293 68.62c-.473 0-.948-.17-1.322-.52l-6.352-5.91c-.398-.37-.623-.89-.618-1.44.004-.54.236-1.06.64-1.42l6.353-5.74c.797-.72 2.024-.66 2.742.14.718.79.655 2.02-.14 2.74l-4.782 4.32 4.803 4.47c.785.73.83 1.95.1 2.74-.384.41-.903.62-1.423.62zM51.117 72.5c-.24 0-.484-.04-.72-.14-.996-.4-1.48-1.53-1.082-2.52l7.765-19.41c.398-1 1.528-1.48 2.522-1.09.997.4 1.48 1.53 1.082 2.53L52.92 71.28c-.304.76-1.033 1.22-1.803 1.22z" fill="#182B3E" fill-rule="nonzero"/></svg>